<?xml version="1.0" encoding="utf-8"?>
<!-- Generator: Adobe Illustrator 22.1.0, SVG Export Plug-In . SVG Version: 6.00 Build 0)  -->
<svg fill="#fff" version="1.1" id="Layer_1" xmlns="http://www.w3.org/2000/svg" xmlns:xlink="http://www.w3.org/1999/xlink" x="0px" y="0px"
	 viewBox="0 0 31 21" style="enable-background:new 0 0 31 21;" xml:space="preserve">
<path d="M29.6,0c0.1,0,0.1,0,0.3,0c0.3,0.1,0.6,0.2,0.7,0.5c0.1,0.1,0.2,0.3,0.3,0.4C31,1.1,31,1.3,31,1.4c0,0.6-0.3,1.1-0.8,1.4
	c-0.1,0.1-0.3,0.1-0.5,0.2c-0.1,0-0.1,0-0.3,0h-28C1.4,3,1.4,3,1.2,3C1,2.9,0.7,2.8,0.5,2.6C0.3,2.5,0.2,2.3,0.2,2.2
	C0.1,2,0,1.9,0,1.7C0,1.2,0.1,0.7,0.5,0.4c0.1-0.1,0.2-0.2,0.3-0.2C0.9,0.1,1.1,0,1.2,0c0.1,0,0.1,0,0.3,0h28C29.5,0,29.6,0,29.6,0z
	"/>
<path d="M29.6,9c0.1,0,0.1,0,0.3,0c0.3,0.1,0.6,0.2,0.7,0.5c0.1,0.1,0.2,0.3,0.3,0.4c0.2,0.5,0.1,1.1-0.3,1.5
	c-0.1,0.1-0.2,0.2-0.4,0.3c-0.1,0.1-0.3,0.1-0.5,0.2c-0.1,0-0.1,0-0.3,0h-28c-0.1,0-0.1,0-0.3,0c-0.2,0-0.3-0.1-0.5-0.2
	c-0.4-0.2-0.7-0.7-0.8-1.1c0-0.1,0-0.3,0-0.4c0-0.2,0.1-0.3,0.1-0.5c0.1-0.2,0.2-0.3,0.3-0.4C0.7,9.2,1,9.1,1.2,9c0.1,0,0.1,0,0.3,0
	h28C29.5,9,29.6,9,29.6,9z"/>
<path d="M29.6,18c0.1,0,0.1,0,0.3,0c0.3,0.1,0.6,0.2,0.7,0.5c0.4,0.4,0.5,1,0.3,1.5c-0.1,0.2-0.2,0.3-0.3,0.4s-0.2,0.2-0.4,0.3
	c-0.1,0.1-0.3,0.1-0.5,0.2c-0.1,0-0.1,0-0.3,0h-28c-0.1,0-0.1,0-0.3,0c-0.3,0-0.6-0.2-0.8-0.4c-0.1-0.1-0.2-0.2-0.2-0.3
	c-0.2-0.4-0.3-0.9-0.1-1.3c0.1-0.2,0.2-0.3,0.3-0.4c0.1-0.1,0.2-0.2,0.4-0.3C0.9,18.1,1.1,18,1.2,18c0.1,0,0.1,0,0.3,0h28
	C29.5,18,29.6,18,29.6,18z"/>
</svg>
