<?xml version="1.0" encoding="utf-8"?>
<!-- Generator: Adobe Illustrator 22.1.0, SVG Export Plug-In . SVG Version: 6.00 Build 0)  -->
<svg fill="#fff" version="1.1"
	 id="Layer_1" xmlns:cc="http://creativecommons.org/ns#" xmlns:dc="http://purl.org/dc/elements/1.1/" xmlns:rdf="http://www.w3.org/1999/02/22-rdf-syntax-ns#"
	 xmlns="http://www.w3.org/2000/svg" xmlns:xlink="http://www.w3.org/1999/xlink" x="0px" y="0px" viewBox="0 0 23 23"
	 style="enable-background:new 0 0 23 23;" xml:space="preserve">
<path color-rendering="auto" shape-rendering="auto" image-rendering="auto" d="M1,0C0.5,0,0,0.4,0,1c0,0.3,0.1,0.5,0.3,0.7l9.8,9.8
	l-9.8,9.8c-0.4,0.4-0.4,1,0,1.4s1,0.4,1.4,0c0,0,0,0,0,0l9.8-9.8l9.8,9.8c0.4,0.4,1,0.4,1.4,0c0.4-0.4,0.4-1,0-1.4c0,0,0,0,0,0
	l-9.8-9.8l9.8-9.8c0.4-0.4,0.4-1,0-1.4C22.5,0.1,22.3,0,22,0c-0.3,0-0.5,0.1-0.7,0.3l-9.8,9.8L1.7,0.3C1.5,0.1,1.3,0,1,0L1,0z"/>
</svg>
